if (_typeface_js && _typeface_js.loadFace) _typeface_js.loadFace({"glyphs":{"S":{"x_min":0,"x_max":347.21875,"ha":521,"o":"m 0 347 l 86 347 l 86 173 l 260 173 l 260 520 l 86 520 l 86 607 l 0 618 l 0 954 l 86 954 l 86 1041 l 260 1041 l 260 954 l 347 954 l 347 781 l 260 781 l 260 954 l 86 954 l 86 607 l 260 607 l 260 520 l 347 509 l 347 173 l 260 173 l 260 86 l 86 86 l 86 173 l 0 173 l 0 347 "},"\u0000":{"x_min":0,"x_max":0,"ha":0},"/":{"x_min":0,"x_max":0,"ha":242},"K":{"x_min":0,"x_max":347.21875,"ha":521,"o":"m 0 1041 l 86 1041 l 86 694 l 173 694 l 173 868 l 260 868 l 260 1041 l 347 1041 l 347 868 l 260 868 l 260 694 l 173 694 l 173 520 l 260 520 l 260 347 l 347 347 l 347 86 l 260 86 l 260 347 l 173 347 l 173 520 l 86 520 l 86 86 l 0 86 l 0 1041 "},"7":{"x_min":0,"x_max":347.21875,"ha":521,"o":"m 0 1041 l 347 1041 l 347 694 l 260 694 l 260 434 l 173 434 l 173 86 l 86 86 l 86 434 l 173 434 l 173 694 l 260 694 l 260 954 l 0 954 l 0 1041 "},"d":{"x_min":0,"x_max":347.21875,"ha":521,"o":"m 86 694 l 86 173 l 173 173 l 173 260 l 260 260 l 260 607 l 173 607 l 173 694 l 86 694 m 0 694 l 86 694 l 86 781 l 173 781 l 173 694 l 260 694 l 260 1041 l 347 1041 l 347 86 l 260 86 l 260 173 l 173 173 l 173 86 l 86 86 l 86 173 l 0 173 l 0 694 "},",":{"x_min":0,"x_max":173.609375,"ha":347,"o":"m 0 0 l 86 0 l 86 86 l 0 86 l 0 260 l 173 260 l 173 0 l 86 0 l 86 -86 l 0 -86 l 0 0 "},"Y":{"x_min":0,"x_max":434.03125,"ha":608,"o":"m 0 1041 l 86 1041 l 86 781 l 173 781 l 173 520 l 260 520 l 260 781 l 347 781 l 347 1041 l 434 1041 l 434 781 l 347 781 l 347 520 l 260 520 l 260 86 l 173 86 l 173 520 l 86 520 l 86 781 l 0 781 l 0 1041 "},"E":{"x_min":0,"x_max":347.21875,"ha":521,"o":"m 0 1041 l 347 1041 l 347 954 l 86 954 l 86 607 l 260 607 l 260 520 l 86 520 l 86 173 l 347 173 l 347 86 l 0 86 l 0 1041 "},"y":{"x_min":0,"x_max":434.03125,"ha":608,"o":"m 0 0 l 173 0 l 173 260 l 86 260 l 86 520 l 0 520 l 0 781 l 86 781 l 86 520 l 173 520 l 173 260 l 260 260 l 260 520 l 347 520 l 347 781 l 434 781 l 434 520 l 347 520 l 347 260 l 260 260 l 260 0 l 173 0 l 173 -86 l 0 -86 l 0 0 "},"\"":{"x_min":0,"x_max":260.421875,"ha":434,"o":"m 0 1128 l 86 1128 l 86 954 l 0 954 l 0 1128 m 173 1128 l 260 1128 l 260 954 l 173 954 l 173 1128 "},"‹":{"x_min":0,"x_max":0,"ha":218},"˙":{"x_min":0,"x_max":0,"ha":124},"„":{"x_min":0,"x_max":0,"ha":273},"g":{"x_min":0,"x_max":347.21875,"ha":521,"o":"m 86 694 l 86 173 l 173 173 l 173 260 l 260 260 l 260 607 l 173 607 l 173 694 l 86 694 m 0 0 l 260 0 l 260 173 l 173 173 l 173 86 l 86 86 l 86 173 l 0 173 l 0 694 l 86 694 l 86 781 l 173 781 l 173 694 l 260 694 l 260 781 l 347 781 l 347 0 l 260 0 l 260 -86 l 0 -86 l 0 0 "},"–":{"x_min":0,"x_max":0,"ha":464},"ƒ":{"x_min":0,"x_max":0,"ha":391},"e":{"x_min":0,"x_max":347.21875,"ha":521,"o":"m 86 694 l 86 520 l 260 520 l 260 694 l 86 694 m 0 694 l 86 694 l 86 781 l 260 781 l 260 694 l 347 694 l 347 434 l 86 434 l 86 173 l 260 173 l 260 347 l 347 347 l 347 173 l 260 173 l 260 86 l 86 86 l 86 173 l 0 173 l 0 694 "},"J":{"x_min":0,"x_max":347.21875,"ha":521,"o":"m 0 347 l 86 347 l 86 173 l 260 173 l 260 1041 l 347 1041 l 347 173 l 260 173 l 260 86 l 86 86 l 86 173 l 0 173 l 0 347 "},"|":{"x_min":0,"x_max":86.8125,"ha":260,"o":"m 0 520 l 86 520 l 86 86 l 0 86 l 0 520 m 0 1041 l 86 1041 l 86 607 l 0 607 l 0 1041 "},"‐":{"x_min":0,"x_max":347.21875,"ha":521,"o":"m 0 520 l 347 520 l 347 434 l 0 434 l 0 520 "},"˘":{"x_min":0,"x_max":0,"ha":244},"^":{"x_min":0,"x_max":347.21875,"ha":521,"o":"m 0 86 l 86 86 l 86 173 l 173 173 l 173 86 l 260 86 l 260 173 l 347 173 l 347 86 l 260 86 l 260 0 l 173 0 l 173 86 l 86 86 l 86 0 l 0 0 l 0 86 m 0 434 l 86 434 l 86 520 l 173 520 l 173 434 l 260 434 l 260 520 l 347 520 l 347 434 l 260 434 l 260 347 l 173 347 l 173 434 l 86 434 l 86 347 l 0 347 l 0 434 m 0 781 l 86 781 l 86 868 l 173 868 l 173 781 l 260 781 l 260 868 l 347 868 l 347 781 l 260 781 l 260 694 l 173 694 l 173 781 l 86 781 l 86 694 l 0 694 l 0 781 "},"\f":{"x_min":0,"x_max":0,"ha":264},"q":{"x_min":0,"x_max":347.21875,"ha":521,"o":"m 86 694 l 86 173 l 173 173 l 173 260 l 260 260 l 260 607 l 173 607 l 173 694 l 86 694 m 0 694 l 86 694 l 86 781 l 173 781 l 173 694 l 260 694 l 260 781 l 347 781 l 347 -86 l 260 -86 l 260 173 l 173 173 l 173 86 l 86 86 l 86 173 l 0 173 l 0 694 "},"b":{"x_min":0,"x_max":347.21875,"ha":521,"o":"m 86 607 l 86 260 l 173 260 l 173 173 l 260 173 l 260 694 l 173 694 l 173 607 l 86 607 m 0 1041 l 86 1041 l 86 694 l 173 694 l 173 781 l 260 781 l 260 694 l 347 694 l 347 173 l 260 173 l 260 86 l 173 86 l 173 173 l 86 173 l 86 86 l 0 86 l 0 1041 "},"D":{"x_min":0,"x_max":347.21875,"ha":521,"o":"m 86 954 l 86 173 l 260 173 l 260 954 l 86 954 m 0 1041 l 260 1041 l 260 954 l 347 954 l 347 173 l 260 173 l 260 86 l 0 86 l 0 1041 "},"z":{"x_min":0,"x_max":347.21875,"ha":521,"o":"m 0 260 l 86 260 l 86 434 l 173 434 l 173 607 l 260 607 l 260 694 l 0 694 l 0 781 l 347 781 l 347 607 l 260 607 l 260 434 l 173 434 l 173 260 l 86 260 l 86 173 l 347 173 l 347 86 l 0 86 l 0 260 "},"ˆ":{"x_min":0,"x_max":0,"ha":244},"w":{"x_min":0,"x_max":434.03125,"ha":608,"o":"m 0 781 l 86 781 l 86 173 l 173 173 l 173 781 l 260 781 l 260 173 l 347 173 l 347 781 l 434 781 l 434 173 l 347 173 l 347 86 l 260 86 l 260 173 l 173 173 l 173 86 l 0 86 l 0 781 "},"$":{"x_min":0,"x_max":0,"ha":431},"\\":{"x_min":0,"x_max":0,"ha":216},"’":{"x_min":0,"x_max":173.609375,"ha":347,"o":"m 0 868 l 86 868 l 86 954 l 0 954 l 0 1128 l 173 1128 l 173 868 l 86 868 l 86 781 l 0 781 l 0 868 "},"~":{"x_min":0,"x_max":347.21875,"ha":521,"o":"m 86 868 l 173 868 l 173 694 l 86 694 l 86 868 m 260 347 l 347 347 l 347 260 l 260 260 l 260 347 m 0 434 l 86 434 l 86 520 l 173 520 l 173 607 l 260 607 l 260 954 l 86 954 l 86 1041 l 260 1041 l 260 954 l 347 954 l 347 607 l 260 607 l 260 520 l 173 520 l 173 434 l 86 434 l 86 86 l 260 86 l 260 173 l 347 173 l 347 86 l 260 86 l 260 0 l 86 0 l 86 86 l 0 86 l 0 434 "},"-":{"x_min":0,"x_max":347.21875,"ha":521,"o":"m 0 520 l 347 520 l 347 434 l 0 434 l 0 520 "},"Q":{"x_min":0,"x_max":434.03125,"ha":608,"o":"m 86 954 l 86 173 l 260 173 l 260 260 l 173 260 l 173 347 l 260 347 l 260 954 l 86 954 m 0 954 l 86 954 l 86 1041 l 260 1041 l 260 954 l 347 954 l 347 347 l 260 347 l 260 260 l 347 260 l 347 173 l 434 173 l 434 86 l 347 86 l 347 173 l 260 173 l 260 86 l 86 86 l 86 173 l 0 173 l 0 954 "},"M":{"x_min":0,"x_max":434.03125,"ha":608,"o":"m 0 1041 l 86 1041 l 86 954 l 173 954 l 173 868 l 260 868 l 260 954 l 347 954 l 347 1041 l 434 1041 l 434 86 l 347 86 l 347 868 l 260 868 l 260 86 l 173 86 l 173 868 l 86 868 l 86 86 l 0 86 l 0 1041 "},"C":{"x_min":0,"x_max":347.21875,"ha":521,"o":"m 0 954 l 86 954 l 86 1041 l 260 1041 l 260 954 l 347 954 l 347 694 l 260 694 l 260 954 l 86 954 l 86 173 l 260 173 l 260 434 l 347 434 l 347 173 l 260 173 l 260 86 l 86 86 l 86 173 l 0 173 l 0 954 "},"[":{"x_min":0,"x_max":347.21875,"ha":521,"o":"m 0 1128 l 347 1128 l 347 954 l 173 954 l 173 173 l 347 173 l 347 0 l 0 0 l 0 1128 "},"L":{"x_min":0,"x_max":347.21875,"ha":521,"o":"m 0 1041 l 86 1041 l 86 173 l 347 173 l 347 86 l 0 86 l 0 1041 "},"!":{"x_min":0,"x_max":86.8125,"ha":260,"o":"m 0 260 l 86 260 l 86 86 l 0 86 l 0 260 m 0 1041 l 86 1041 l 86 347 l 0 347 l 0 1041 "}," ":{"x_min":0,"x_max":0,"ha":347},"{":{"x_min":0,"x_max":0,"ha":285},"X":{"x_min":0,"x_max":434.03125,"ha":608,"o":"m 0 260 l 86 260 l 86 434 l 173 434 l 173 694 l 86 694 l 86 868 l 0 868 l 0 1041 l 86 1041 l 86 868 l 173 868 l 173 694 l 260 694 l 260 868 l 347 868 l 347 1041 l 434 1041 l 434 868 l 347 868 l 347 694 l 260 694 l 260 434 l 347 434 l 347 260 l 434 260 l 434 86 l 347 86 l 347 260 l 260 260 l 260 434 l 173 434 l 173 260 l 86 260 l 86 86 l 0 86 l 0 260 "},"P":{"x_min":0,"x_max":347.21875,"ha":521,"o":"m 86 954 l 86 607 l 260 607 l 260 954 l 86 954 m 0 1041 l 260 1041 l 260 954 l 347 954 l 347 607 l 260 607 l 260 520 l 86 520 l 86 86 l 0 86 l 0 1041 "},"%":{"x_min":0,"x_max":0,"ha":431},"#":{"x_min":86.8125,"x_max":1128.46875,"ha":1297,"o":"m 173 1041 l 434 1041 l 434 954 l 520 954 l 520 868 l 694 868 l 705 954 l 781 954 l 781 1041 l 1041 1041 l 1041 954 l 1128 954 l 1128 607 l 1041 607 l 1041 520 l 954 520 l 954 434 l 868 434 l 868 347 l 781 347 l 781 260 l 694 260 l 694 173 l 520 173 l 520 260 l 434 260 l 434 347 l 347 347 l 347 434 l 260 434 l 260 520 l 173 520 l 173 607 l 86 607 l 86 954 l 173 954 l 173 1041 "},"_":{"x_min":0,"x_max":0,"ha":332},"+":{"x_min":0,"x_max":0,"ha":431},"‚":{"x_min":0,"x_max":0,"ha":159},")":{"x_min":0,"x_max":347.21875,"ha":521,"o":"m 0 260 l 86 260 l 86 347 l 173 347 l 173 781 l 86 781 l 86 868 l 0 868 l 0 1128 l 86 1128 l 86 1041 l 173 1041 l 173 954 l 260 954 l 260 868 l 347 868 l 347 260 l 260 260 l 260 173 l 173 173 l 173 86 l 86 86 l 86 0 l 0 0 l 0 260 "},"'":{"x_min":0,"x_max":173.609375,"ha":347,"o":"m 0 868 l 86 868 l 86 954 l 0 954 l 0 1128 l 173 1128 l 173 868 l 86 868 l 86 781 l 0 781 l 0 868 "},"}":{"x_min":0,"x_max":0,"ha":244},"‰":{"x_min":0,"x_max":0,"ha":494},"˛":{"x_min":0,"x_max":0,"ha":183},"a":{"x_min":0,"x_max":347.21875,"ha":521,"o":"m 86 434 l 86 173 l 173 173 l 173 260 l 260 260 l 260 434 l 86 434 m 0 434 l 86 434 l 86 520 l 260 520 l 260 694 l 86 694 l 86 607 l 0 607 l 0 694 l 86 694 l 86 781 l 260 781 l 260 694 l 347 694 l 347 86 l 260 86 l 260 173 l 173 173 l 173 86 l 86 86 l 86 173 l 0 173 l 0 434 "},"T":{"x_min":0,"x_max":434.03125,"ha":608,"o":"m 0 1041 l 434 1041 l 434 954 l 260 954 l 260 86 l 173 86 l 173 954 l 0 954 l 0 1041 "},"—":{"x_min":0,"x_max":0,"ha":606},"=":{"x_min":0,"x_max":347.21875,"ha":521,"o":"m 0 434 l 347 434 l 347 347 l 0 347 l 0 434 m 0 694 l 347 694 l 347 607 l 0 607 l 0 694 "},"N":{"x_min":0,"x_max":347.21875,"ha":521,"o":"m 0 1041 l 86 1041 l 86 868 l 173 868 l 173 607 l 260 607 l 260 1041 l 347 1041 l 347 86 l 260 86 l 260 347 l 173 347 l 173 607 l 86 607 l 86 86 l 0 86 l 0 1041 "},"˚":{"x_min":0,"x_max":0,"ha":244},"⁄":{"x_min":0,"x_max":0,"ha":159},"2":{"x_min":0,"x_max":347.21875,"ha":521,"o":"m 0 347 l 86 347 l 86 520 l 173 520 l 173 694 l 260 694 l 260 954 l 86 954 l 86 781 l 0 781 l 0 954 l 86 954 l 86 1041 l 260 1041 l 260 954 l 347 954 l 347 694 l 260 694 l 260 520 l 173 520 l 173 347 l 86 347 l 86 173 l 347 173 l 347 86 l 0 86 l 0 347 "},"j":{"x_min":0,"x_max":260.421875,"ha":434,"o":"m 0 0 l 173 0 l 173 781 l 260 781 l 260 0 l 173 0 l 173 -86 l 0 -86 l 0 0 m 173 1041 l 260 1041 l 260 868 l 173 868 l 173 1041 "},"Z":{"x_min":0,"x_max":347.21875,"ha":521,"o":"m 0 347 l 86 347 l 86 607 l 173 607 l 173 868 l 260 868 l 260 954 l 0 954 l 0 1041 l 347 1041 l 347 868 l 260 868 l 260 607 l 173 607 l 173 347 l 86 347 l 86 173 l 347 173 l 347 86 l 0 86 l 0 347 "},"u":{"x_min":0,"x_max":347.21875,"ha":521,"o":"m 0 781 l 86 781 l 86 173 l 173 173 l 173 260 l 260 260 l 260 781 l 347 781 l 347 86 l 260 86 l 260 173 l 173 173 l 173 86 l 86 86 l 86 173 l 0 173 l 0 781 "},"1":{"x_min":86.8125,"x_max":260.421875,"ha":521,"o":"m 173 1041 l 260 1041 l 260 86 l 173 86 l 173 868 l 86 868 l 86 954 l 173 954 l 173 1041 "},"›":{"x_min":0,"x_max":0,"ha":218},"˜":{"x_min":0,"x_max":0,"ha":328},"k":{"x_min":0,"x_max":347.21875,"ha":521,"o":"m 0 1041 l 86 1041 l 86 607 l 173 607 l 173 694 l 260 694 l 260 781 l 347 781 l 347 694 l 260 694 l 260 607 l 173 607 l 173 520 l 260 520 l 260 260 l 347 260 l 347 86 l 260 86 l 260 260 l 173 260 l 173 520 l 86 520 l 86 86 l 0 86 l 0 1041 "},"ˇ":{"x_min":0,"x_max":0,"ha":244},"<":{"x_min":0,"x_max":347.21875,"ha":521,"o":"m 0 520 l 86 520 l 86 607 l 173 607 l 173 694 l 260 694 l 260 781 l 347 781 l 347 173 l 260 173 l 260 260 l 173 260 l 173 347 l 86 347 l 86 434 l 0 434 l 0 520 "},"t":{"x_min":0,"x_max":347.21875,"ha":521,"o":"m 0 781 l 86 781 l 86 1041 l 173 1041 l 173 781 l 347 781 l 347 694 l 173 694 l 173 173 l 347 173 l 347 86 l 173 86 l 173 173 l 86 173 l 86 694 l 0 694 l 0 781 "},"W":{"x_min":0,"x_max":434.03125,"ha":608,"o":"m 0 1041 l 86 1041 l 86 260 l 173 260 l 173 1041 l 260 1041 l 260 260 l 347 260 l 347 1041 l 434 1041 l 434 260 l 347 260 l 347 86 l 260 86 l 260 260 l 173 260 l 173 86 l 86 86 l 86 260 l 0 260 l 0 1041 "},"v":{"x_min":0,"x_max":434.03125,"ha":608,"o":"m 0 781 l 86 781 l 86 520 l 173 520 l 173 260 l 260 260 l 260 520 l 347 520 l 347 781 l 434 781 l 434 520 l 347 520 l 347 260 l 260 260 l 260 86 l 173 86 l 173 260 l 86 260 l 86 520 l 0 520 l 0 781 "},">":{"x_min":0,"x_max":347.21875,"ha":521,"o":"m 0 781 l 86 781 l 86 694 l 173 694 l 173 607 l 260 607 l 260 520 l 347 520 l 347 434 l 260 434 l 260 347 l 173 347 l 173 260 l 86 260 l 86 173 l 0 173 l 0 781 "},"s":{"x_min":0,"x_max":347.21875,"ha":521,"o":"m 0 347 l 86 347 l 86 173 l 260 173 l 260 434 l 86 434 l 86 520 l 0 520 l 0 694 l 86 694 l 86 781 l 260 781 l 260 694 l 347 694 l 347 607 l 260 607 l 260 694 l 86 694 l 86 520 l 260 520 l 260 434 l 347 434 l 347 173 l 260 173 l 260 86 l 86 86 l 86 173 l 0 173 l 0 347 "},"B":{"x_min":0,"x_max":347.21875,"ha":521,"o":"m 86 520 l 86 173 l 260 173 l 260 520 l 86 520 m 86 954 l 86 607 l 260 607 l 260 954 l 86 954 m 0 1041 l 260 1041 l 260 954 l 347 954 l 347 607 l 260 607 l 260 520 l 347 509 l 347 173 l 260 173 l 260 86 l 0 86 l 0 1041 "},"…":{"x_min":0,"x_max":434.03125,"ha":608,"o":"m 0 260 l 86 260 l 86 86 l 0 86 l 0 260 m 173 260 l 260 260 l 260 86 l 173 86 l 173 260 m 347 260 l 434 260 l 434 86 l 347 86 l 347 260 "},"?":{"x_min":0,"x_max":434.03125,"ha":608,"o":"m 173 260 l 260 260 l 260 86 l 173 86 l 173 260 m 0 954 l 86 954 l 86 1041 l 347 1041 l 347 954 l 434 954 l 434 607 l 347 607 l 347 520 l 260 520 l 260 347 l 173 347 l 173 520 l 260 520 l 260 607 l 347 607 l 347 954 l 86 954 l 86 607 l 0 607 l 0 954 "},"H":{"x_min":0,"x_max":347.21875,"ha":521,"o":"m 0 1041 l 86 1041 l 86 607 l 260 607 l 260 1041 l 347 1041 l 347 86 l 260 86 l 260 520 l 86 520 l 86 86 l 0 86 l 0 1041 "},"c":{"x_min":0,"x_max":347.21875,"ha":521,"o":"m 0 694 l 86 694 l 86 781 l 260 781 l 260 694 l 347 694 l 347 520 l 260 520 l 260 694 l 86 694 l 86 173 l 260 173 l 260 347 l 347 347 l 347 173 l 260 173 l 260 86 l 86 86 l 86 173 l 0 173 l 0 694 "},"&":{"x_min":0,"x_max":0,"ha":330},"˝":{"x_min":0,"x_max":0,"ha":317},"I":{"x_min":0,"x_max":86.8125,"ha":260,"o":"m 0 1041 l 86 1041 l 86 86 l 0 86 l 0 1041 "},"•":{"x_min":0,"x_max":0,"ha":262},"ˉ":{"x_min":0,"x_max":0,"ha":244},"G":{"x_min":0,"x_max":347.21875,"ha":521,"o":"m 0 954 l 86 954 l 86 1041 l 260 1041 l 260 954 l 347 954 l 347 694 l 260 694 l 260 954 l 86 954 l 86 173 l 260 173 l 260 434 l 173 434 l 173 520 l 347 520 l 347 86 l 86 86 l 86 173 l 0 173 l 0 954 "},"`":{"x_min":0,"x_max":347.21875,"ha":521,"o":"m 173 954 l 173 607 l 260 607 l 260 954 l 173 954 m 0 347 l 86 347 l 86 434 l 0 434 l 0 520 l 86 520 l 86 434 l 173 434 l 173 607 l 86 618 l 86 954 l 173 954 l 173 1041 l 260 1041 l 260 954 l 347 954 l 347 607 l 260 607 l 260 434 l 347 434 l 347 347 l 260 347 l 260 0 l 173 0 l 173 347 l 86 347 l 86 260 l 0 260 l 0 347 "},"(":{"x_min":0,"x_max":347.21875,"ha":521,"o":"m 0 868 l 86 868 l 86 954 l 173 954 l 173 1041 l 260 1041 l 260 1128 l 347 1128 l 347 868 l 260 857 l 260 781 l 173 781 l 173 347 l 260 347 l 260 260 l 347 260 l 347 0 l 260 0 l 260 86 l 173 86 l 173 173 l 86 173 l 86 260 l 0 260 l 0 868 "},"U":{"x_min":0,"x_max":347.21875,"ha":521,"o":"m 0 1041 l 86 1041 l 86 173 l 260 173 l 260 1041 l 347 1041 l 347 173 l 260 173 l 260 86 l 86 86 l 86 173 l 0 173 l 0 1041 "},"◊":{"x_min":0,"x_max":0,"ha":165},"F":{"x_min":0,"x_max":347.21875,"ha":521,"o":"m 0 1041 l 347 1041 l 347 954 l 86 954 l 86 607 l 260 607 l 260 520 l 86 520 l 86 86 l 0 86 l 0 1041 "},"r":{"x_min":0,"x_max":260.421875,"ha":434,"o":"m 0 781 l 86 781 l 86 694 l 173 694 l 173 781 l 260 781 l 260 694 l 173 683 l 173 607 l 86 607 l 86 86 l 0 86 l 0 781 "},":":{"x_min":86.8125,"x_max":260.421875,"ha":434,"o":"m 86 260 l 260 260 l 260 86 l 86 86 l 86 260 m 86 781 l 260 781 l 260 607 l 86 607 l 86 781 "},"x":{"x_min":0,"x_max":434.03125,"ha":608,"o":"m 0 260 l 86 260 l 86 434 l 173 434 l 173 520 l 86 520 l 86 607 l 0 607 l 0 781 l 86 781 l 86 607 l 173 607 l 173 520 l 260 520 l 260 607 l 347 607 l 347 781 l 434 781 l 434 607 l 347 607 l 347 520 l 260 520 l 260 434 l 347 434 l 347 260 l 434 260 l 434 86 l 347 86 l 347 260 l 260 260 l 260 434 l 173 434 l 173 260 l 86 260 l 86 86 l 0 86 l 0 260 "},"*":{"x_min":0,"x_max":1215.28125,"ha":1297,"o":"m 86 954 l 86 607 l 173 607 l 173 520 l 260 520 l 260 434 l 347 434 l 347 347 l 434 347 l 434 260 l 520 260 l 520 173 l 694 173 l 694 260 l 781 260 l 781 347 l 868 347 l 868 434 l 954 434 l 954 520 l 1041 520 l 1041 607 l 1128 607 l 1128 954 l 1041 954 l 1041 1041 l 781 1041 l 781 954 l 694 954 l 694 868 l 520 868 l 520 954 l 434 954 l 434 1041 l 173 1041 l 173 954 l 86 954 m 0 954 l 86 954 l 86 1041 l 173 1041 l 173 1128 l 434 1128 l 434 1041 l 520 1041 l 520 954 l 694 954 l 694 1041 l 781 1041 l 781 1128 l 1041 1128 l 1041 1041 l 1128 1041 l 1128 954 l 1215 954 l 1215 607 l 1128 607 l 1128 520 l 1041 520 l 1041 434 l 954 434 l 954 347 l 868 347 l 868 260 l 781 260 l 781 173 l 694 173 l 694 86 l 520 86 l 520 173 l 434 173 l 434 260 l 347 260 l 347 347 l 260 347 l 260 434 l 173 434 l 173 520 l 86 520 l 86 607 l 0 607 l 0 954 "},"†":{"x_min":0,"x_max":0,"ha":306},"V":{"x_min":0,"x_max":434.03125,"ha":608,"o":"m 0 1041 l 86 1041 l 86 607 l 173 607 l 173 260 l 260 260 l 260 607 l 347 607 l 347 1041 l 434 1041 l 434 607 l 347 607 l 347 260 l 260 260 l 260 86 l 173 86 l 173 260 l 86 260 l 86 607 l 0 607 l 0 1041 "},"h":{"x_min":0,"x_max":347.21875,"ha":521,"o":"m 0 1041 l 86 1041 l 86 694 l 173 694 l 173 781 l 260 781 l 260 694 l 347 694 l 347 86 l 260 86 l 260 694 l 173 694 l 173 607 l 86 607 l 86 86 l 0 86 l 0 1041 "},"0":{"x_min":0,"x_max":347.21875,"ha":521,"o":"m 86 954 l 86 173 l 260 173 l 260 954 l 86 954 m 0 954 l 86 954 l 86 1041 l 260 1041 l 260 954 l 347 954 l 347 173 l 260 173 l 260 86 l 86 86 l 86 173 l 0 173 l 0 954 "},".":{"x_min":0,"x_max":173.609375,"ha":347,"o":"m 0 260 l 173 260 l 173 86 l 0 86 l 0 260 "},"”":{"x_min":0,"x_max":260.421875,"ha":434,"o":"m 0 1128 l 86 1128 l 86 954 l 0 954 l 0 1128 m 173 1128 l 260 1128 l 260 954 l 173 954 l 173 1128 "},"@":{"x_min":0,"x_max":1215.28125,"ha":1297,"o":"m 347 954 l 347 868 l 434 868 l 434 954 l 347 954 m 434 1041 l 434 954 l 520 954 l 520 1041 l 434 1041 m 1041 607 l 1128 607 l 1128 520 l 1041 520 l 1041 607 m 0 781 l 86 781 l 97 954 l 173 954 l 173 1041 l 347 1041 l 347 1128 l 520 1128 l 520 1041 l 694 1041 l 705 1128 l 1041 1128 l 1041 1041 l 1128 1041 l 1128 954 l 781 954 l 781 868 l 607 868 l 607 781 l 520 781 l 520 694 l 434 694 l 434 607 l 347 607 l 347 868 l 260 868 l 260 781 l 86 781 l 86 434 l 173 434 l 173 694 l 260 694 l 260 520 l 347 520 l 347 434 l 434 434 l 434 260 l 520 260 l 531 434 l 607 434 l 607 607 l 694 607 l 694 347 l 781 347 l 792 434 l 868 434 l 868 694 l 954 694 l 954 434 l 1215 434 l 1215 347 l 954 347 l 954 260 l 1041 260 l 1041 173 l 868 173 l 868 86 l 520 86 l 520 173 l 347 173 l 347 260 l 260 260 l 260 434 l 173 434 l 173 173 l 86 173 l 86 86 l 0 86 l 0 781 "},"f":{"x_min":0,"x_max":347.21875,"ha":521,"o":"m 0 607 l 86 607 l 86 954 l 173 954 l 173 1041 l 347 1041 l 347 954 l 173 954 l 173 607 l 347 607 l 347 520 l 173 520 l 173 86 l 86 86 l 86 520 l 0 520 l 0 607 "},";":{"x_min":86.8125,"x_max":260.421875,"ha":434,"o":"m 86 260 l 260 260 l 260 0 l 173 0 l 173 -86 l 86 -86 l 86 0 l 173 0 l 173 86 l 86 86 l 86 260 m 86 781 l 260 781 l 260 607 l 86 607 l 86 781 "},"“":{"x_min":0,"x_max":260.421875,"ha":434,"o":"m 0 1128 l 86 1128 l 86 954 l 0 954 l 0 1128 m 173 1128 l 260 1128 l 260 954 l 173 954 l 173 1128 "},"i":{"x_min":0,"x_max":86.8125,"ha":260,"o":"m 0 781 l 86 781 l 86 86 l 0 86 l 0 781 m 0 1041 l 86 1041 l 86 868 l 0 868 l 0 1041 "},"6":{"x_min":0,"x_max":347.21875,"ha":521,"o":"m 86 607 l 86 173 l 260 173 l 260 607 l 86 607 m 0 954 l 86 954 l 86 1041 l 260 1041 l 260 954 l 347 954 l 347 781 l 260 781 l 260 954 l 86 954 l 86 694 l 260 694 l 260 607 l 347 596 l 347 173 l 260 173 l 260 86 l 86 86 l 86 173 l 0 173 l 0 954 "},"A":{"x_min":0,"x_max":347.21875,"ha":521,"o":"m 86 954 l 86 607 l 260 607 l 260 954 l 86 954 m 0 954 l 86 954 l 86 1041 l 260 1041 l 260 954 l 347 954 l 347 86 l 260 86 l 260 520 l 86 520 l 86 86 l 0 86 l 0 954 "},"‘":{"x_min":0,"x_max":173.609375,"ha":347,"o":"m 0 1041 l 86 1041 l 86 1128 l 173 1128 l 173 1041 l 86 1041 l 86 954 l 173 954 l 173 781 l 0 781 l 0 1041 "},"n":{"x_min":0,"x_max":347.21875,"ha":521,"o":"m 0 781 l 86 781 l 86 694 l 173 694 l 173 781 l 260 781 l 260 694 l 347 694 l 347 86 l 260 86 l 260 694 l 173 694 l 173 607 l 86 607 l 86 86 l 0 86 l 0 781 "},"O":{"x_min":0,"x_max":347.21875,"ha":521,"o":"m 86 954 l 86 173 l 260 173 l 260 954 l 86 954 m 0 954 l 86 954 l 86 1041 l 260 1041 l 260 954 l 347 954 l 347 173 l 260 173 l 260 86 l 86 86 l 86 173 l 0 173 l 0 954 "},"3":{"x_min":0,"x_max":347.21875,"ha":521,"o":"m 0 347 l 86 347 l 86 173 l 260 173 l 260 520 l 86 520 l 86 607 l 260 607 l 260 954 l 86 954 l 86 781 l 0 781 l 0 954 l 86 954 l 86 1041 l 260 1041 l 260 954 l 347 954 l 347 607 l 260 607 l 260 520 l 347 509 l 347 173 l 260 173 l 260 86 l 86 86 l 86 173 l 0 173 l 0 347 "},"]":{"x_min":0,"x_max":347.21875,"ha":521,"o":"m 0 173 l 173 173 l 173 954 l 0 954 l 0 1128 l 347 1128 l 347 0 l 0 0 l 0 173 "},"m":{"x_min":0,"x_max":434.03125,"ha":608,"o":"m 0 781 l 173 781 l 173 694 l 260 694 l 260 781 l 347 781 l 347 694 l 434 694 l 434 86 l 347 86 l 347 694 l 260 694 l 260 86 l 173 86 l 173 694 l 86 694 l 86 86 l 0 86 l 0 781 "},"9":{"x_min":0,"x_max":347.21875,"ha":521,"o":"m 86 954 l 86 520 l 260 520 l 260 954 l 86 954 m 0 347 l 86 347 l 86 173 l 260 173 l 260 434 l 86 434 l 86 520 l 0 531 l 0 954 l 86 954 l 86 1041 l 260 1041 l 260 954 l 347 954 l 347 173 l 260 173 l 260 86 l 86 86 l 86 173 l 0 173 l 0 347 "},"l":{"x_min":0,"x_max":86.8125,"ha":260,"o":"m 0 1041 l 86 1041 l 86 86 l 0 86 l 0 1041 "},"8":{"x_min":0,"x_max":347.21875,"ha":521,"o":"m 86 520 l 86 173 l 260 173 l 260 520 l 86 520 m 86 954 l 86 607 l 260 607 l 260 954 l 86 954 m 0 520 l 86 520 l 86 607 l 0 618 l 0 954 l 86 954 l 86 1041 l 260 1041 l 260 954 l 347 954 l 347 607 l 260 607 l 260 520 l 347 509 l 347 173 l 260 173 l 260 86 l 86 86 l 86 173 l 0 173 l 0 520 "},"p":{"x_min":0,"x_max":347.21875,"ha":521,"o":"m 86 607 l 86 260 l 173 260 l 173 173 l 260 173 l 260 694 l 173 694 l 173 607 l 86 607 m 0 781 l 86 781 l 86 694 l 173 694 l 173 781 l 260 781 l 260 694 l 347 694 l 347 173 l 260 173 l 260 86 l 173 86 l 173 173 l 86 173 l 86 -86 l 0 -86 l 0 781 "},"4":{"x_min":0,"x_max":347.21875,"ha":521,"o":"m 86 868 l 86 434 l 173 434 l 173 868 l 86 868 m 0 868 l 86 868 l 86 1041 l 260 1041 l 260 434 l 347 434 l 347 347 l 260 347 l 260 86 l 173 86 l 173 347 l 0 347 l 0 868 "},"‡":{"x_min":0,"x_max":0,"ha":228},"R":{"x_min":0,"x_max":347.21875,"ha":521,"o":"m 86 954 l 86 607 l 260 607 l 260 954 l 86 954 m 0 1041 l 260 1041 l 260 954 l 347 954 l 347 607 l 260 607 l 260 434 l 347 423 l 347 86 l 260 86 l 260 434 l 173 434 l 173 520 l 86 520 l 86 86 l 0 86 l 0 1041 "},"\r":{"x_min":0,"x_max":0,"ha":264},"o":{"x_min":0,"x_max":347.21875,"ha":521,"o":"m 86 694 l 86 173 l 260 173 l 260 694 l 86 694 m 0 694 l 86 694 l 86 781 l 260 781 l 260 694 l 347 694 l 347 173 l 260 173 l 260 86 l 86 86 l 86 173 l 0 173 l 0 694 "},"5":{"x_min":0,"x_max":347.21875,"ha":521,"o":"m 0 260 l 86 260 l 86 173 l 260 173 l 260 607 l 86 607 l 86 520 l 0 520 l 0 1041 l 347 1041 l 347 954 l 86 954 l 86 694 l 260 694 l 260 607 l 347 596 l 347 173 l 260 173 l 260 86 l 86 86 l 86 173 l 0 173 l 0 260 "}}}
